<svg width="23" height="25" viewBox="0 0 23 25" fill="currentColor" xmlns="http://www.w3.org/2000/svg">
<path fill-rule="evenodd" clip-rule="evenodd" d="M15.7039 0.0244769C15.7221 -0.0014862 15.7579 -0.00779593 15.7839 0.0103837L17.559 1.25335C17.585 1.27153 17.5913 1.30731 17.5731 1.33327L15.1024 4.86176C16.3035 5.24549 17.1219 5.65941 17.1219 5.65941C17.1219 5.65941 15.1216 9.1 11.7291 9.1C8.33648 9.1 5.92575 5.89331 5.92575 5.89331C5.92575 5.89331 6.78055 5.34779 8.04766 4.87992L5.33766 1.6503C5.31729 1.62602 5.32047 1.58982 5.34474 1.56945L7.00477 0.176499C7.02909 0.156126 7.06527 0.159293 7.08563 0.183573L10.5169 4.27284C10.8107 4.23961 11.1101 4.22103 11.4121 4.22103C11.8463 4.22103 12.2799 4.25404 12.7032 4.31004L15.7039 0.0244769ZM16.3751 9.26294C17.2805 8.61635 18.6504 6.92872 18.6504 6.92872C18.6504 6.92872 22.1497 9.70171 22.1497 15.5815C22.1497 21.4612 16.1 25 16.1 25C16.1 25 13.2096 22.081 12.5 18.3807C11.7904 14.6804 13.5496 10.5716 13.5496 10.5716C13.5496 10.5716 15.4697 9.90953 16.3751 9.26294ZM6.62483 9.26294C5.7195 8.61635 4.34955 6.92872 4.34955 6.92872C4.34955 6.92872 0.850281 9.70171 0.850281 15.5815C0.850281 21.4612 6.89998 25 6.89998 25C6.89998 25 9.79041 22.081 10.5 18.3807C11.2095 14.6804 9.45037 10.5716 9.45037 10.5716C9.45037 10.5716 7.53022 9.90953 6.62483 9.26294Z" fill="currentColor"/>
</svg>
