<svg width="23" height="25" viewBox="0 0 23 25" fill="currentColor" xmlns="http://www.w3.org/2000/svg">
<path fill-rule="evenodd" clip-rule="evenodd" d="M12.7128 12.4454C12.8822 12.342 13.026 12.1255 13.1419 11.8849C14.6675 12.5084 15.7397 13.9819 15.7397 15.7002C15.7397 17.9829 13.8476 19.8334 11.5136 19.8334C10.5555 19.8334 9.67184 19.5216 8.963 18.996C8.73048 18.8859 8.53917 18.7802 8.38263 18.6936C8.13981 18.5594 7.98058 18.4713 7.88087 18.4851C7.58942 18.5253 7.67404 18.7935 7.75094 19.0371C7.80314 19.2025 7.85182 19.3567 7.77648 19.4203C7.69767 19.4869 7.4424 19.2435 7.1441 18.9591C6.73805 18.5719 6.25231 18.1088 6.02325 18.2479C5.84215 18.3579 6.01798 18.6563 6.23322 19.0215L6.24918 19.0486C6.3401 19.203 6.44547 19.3603 6.54161 19.5037C6.73707 19.7953 6.8945 20.0302 6.81574 20.07C6.72052 20.118 6.05714 19.6703 5.49811 19.0486C5.28234 18.8087 5.07335 18.5487 4.87911 18.307V18.307C4.45397 17.778 4.09977 17.3373 3.90094 17.3895C3.66176 17.4523 3.84269 17.9457 4.10856 18.4204C4.23287 18.6424 4.37911 18.8685 4.50573 19.0643V19.0643C4.70265 19.3687 4.85211 19.5997 4.79791 19.6281C4.72477 19.6664 4.08117 19.0388 3.64403 18.2479C3.38438 17.7781 3.16637 17.259 2.98986 16.8387C2.79845 16.3829 2.65587 16.0434 2.56198 16.0092C2.23578 15.8905 2.23578 16.5556 2.36661 17.5155C2.38367 17.6408 2.40909 17.7721 2.44038 17.9059C3.70914 22.011 7.60665 25 12.2179 25C17.8584 25 22.4309 20.5279 22.4309 15.0113C22.4309 9.76074 18.2888 5.4564 13.0262 5.05342C13.0328 4.80607 13.1619 4.31558 13.1619 4.31558C13.1619 4.31558 14.091 2.06773 14.1401 1.5874C14.1433 1.55552 14.1472 1.52087 14.1513 1.48398C14.2092 0.964985 14.3169 0 13.4867 0C13.0433 0 12.8372 0.329816 12.6014 0.707026V0.707031C12.5109 0.851841 12.4159 1.00364 12.3016 1.14644C11.4779 2.17498 10.093 3.45941 9.30768 4.14371C7.64782 5.59004 6.0193 6.77871 5.0695 7.47197L5.06945 7.47202C4.63746 7.7873 4.34591 8.00015 4.25568 8.08809C3.5757 8.75098 1.1376 13.1487 1.1376 13.1487C1.1376 13.1487 0.349148 14.5597 0.629397 14.8458C0.909646 15.132 1.58547 15.0664 1.58547 15.0664C1.58547 15.0664 10.6646 12.9835 11.4775 12.8193C11.6963 12.775 11.8508 12.7495 11.9694 12.7299C12.2914 12.6768 12.3492 12.6672 12.7128 12.4454ZM6.29352 9.76875C5.80617 10.232 4.99791 11.3377 4.99791 11.3377C4.99791 11.3377 6.50006 11.4302 7.32736 10.6438C8.1547 9.85742 7.96515 8.51724 7.96515 8.51724C7.96515 8.51724 6.78082 9.30552 6.29352 9.76875Z" fill="currentColor"/>
</svg>
