<svg width="21" height="19" viewBox="0 0 21 19" fill="currentColor" xmlns="http://www.w3.org/2000/svg">
<path fill-rule="evenodd" clip-rule="evenodd" d="M9.3341 4.4863C8.92616 5.65864 7.81133 6.5 6.5 6.5C5.18867 6.5 4.07385 5.65864 3.6659 4.4863C3.61194 4.49531 3.55652 4.5 3.5 4.5H1.5C0.947715 4.5 0.5 4.05228 0.5 3.5C0.5 2.94772 0.947715 2.5 1.5 2.5H3.5C3.55652 2.5 3.61194 2.50469 3.6659 2.5137C4.07385 1.34136 5.18867 0.5 6.5 0.5C7.81133 0.5 8.92616 1.34136 9.3341 2.5137C9.38806 2.50469 9.44348 2.5 9.5 2.5H19.5C20.0523 2.5 20.5 2.94772 20.5 3.5C20.5 4.05228 20.0523 4.5 19.5 4.5H9.5C9.44348 4.5 9.38806 4.49531 9.3341 4.4863ZM7.5 3.5C7.5 4.05228 7.05228 4.5 6.5 4.5C5.94772 4.5 5.5 4.05228 5.5 3.5C5.5 2.94772 5.94772 2.5 6.5 2.5C7.05228 2.5 7.5 2.94772 7.5 3.5Z" fill="currentColor"/>
<path fill-rule="evenodd" clip-rule="evenodd" d="M0.5 15.5C0.5 14.9477 0.947715 14.5 1.5 14.5H3.5C3.55652 14.5 3.61194 14.5047 3.6659 14.5137C4.07385 13.3414 5.18867 12.5 6.5 12.5C7.81133 12.5 8.92615 13.3414 9.3341 14.5137C9.38806 14.5047 9.44348 14.5 9.5 14.5H19.5C20.0523 14.5 20.5 14.9477 20.5 15.5C20.5 16.0523 20.0523 16.5 19.5 16.5H9.5C9.44348 16.5 9.38806 16.4953 9.3341 16.4863C8.92615 17.6586 7.81133 18.5 6.5 18.5C5.18867 18.5 4.07385 17.6586 3.6659 16.4863C3.61194 16.4953 3.55652 16.5 3.5 16.5H1.5C0.947715 16.5 0.5 16.0523 0.5 15.5ZM7.5 15.5C7.5 16.0523 7.05228 16.5 6.5 16.5C5.94772 16.5 5.5 16.0523 5.5 15.5C5.5 14.9477 5.94772 14.5 6.5 14.5C7.05228 14.5 7.5 14.9477 7.5 15.5Z" fill="currentColor"/>
<path fill-rule="evenodd" clip-rule="evenodd" d="M19.5 8.5C20.0523 8.5 20.5 8.94771 20.5 9.5C20.5 10.0523 20.0523 10.5 19.5 10.5H17.5C17.4435 10.5 17.3881 10.4953 17.3341 10.4863C16.9262 11.6586 15.8113 12.5 14.5 12.5C13.1887 12.5 12.0738 11.6586 11.6659 10.4863C11.6119 10.4953 11.5565 10.5 11.5 10.5H1.5C0.947715 10.5 0.5 10.0523 0.5 9.5C0.5 8.94771 0.947715 8.5 1.5 8.5H11.5C11.5565 8.5 11.6119 8.50469 11.6659 8.5137C12.0738 7.34135 13.1887 6.5 14.5 6.5C15.8113 6.5 16.9262 7.34135 17.3341 8.5137C17.3881 8.50469 17.4435 8.5 17.5 8.5H19.5ZM14.5 10.5C15.0523 10.5 15.5 10.0523 15.5 9.5C15.5 8.94772 15.0523 8.5 14.5 8.5C13.9477 8.5 13.5 8.94772 13.5 9.5C13.5 10.0523 13.9477 10.5 14.5 10.5Z" fill="currentColor"/>
</svg>
