<svg width="19" height="25" viewBox="0 0 19 25" fill="currentColor" xmlns="http://www.w3.org/2000/svg">
<path fill-rule="evenodd" clip-rule="evenodd" d="M14.2084 19.3064C14.5173 18.1769 13.9178 15.855 13.9178 15.855C13.9178 15.855 13.4829 17.7465 12.8034 18.4457C12.2237 19.042 11.5135 19.4556 10.495 19.5643C11.3277 19.1598 11.9004 18.3164 11.9004 17.3416C11.9004 15.9731 10.7719 14.8637 9.37983 14.8637C7.98774 14.8637 6.85917 15.9731 6.85917 17.3416C6.85917 17.7153 6.9434 18.0697 7.09413 18.3875C6.22343 17.6939 6.08652 16.5817 6.08652 16.5817C6.08652 16.5817 5.11425 20.6184 7.79325 22.5172C10.4722 24.416 15.7202 22.7839 15.7202 22.7839C15.7202 22.7839 8.21 28.0682 2.64486 22.3169C-2.14905 17.3625 1.39365 10.84 1.39365 10.84C1.39365 10.84 1.24065 11.4451 1.24065 12.1475C1.24065 12.8499 1.62147 13.3843 1.62147 13.3843C1.62147 13.3843 2.75746 10.9898 3.64154 10.016C4.47826 9.09444 5.52714 8.34698 6.4331 7.70137C7.13046 7.2044 7.74316 6.76778 8.10907 6.35855C10.1246 4.10492 8.88876 0 8.88876 0C8.88876 0 11.1607 2.00293 11.795 4.58974C12.0368 5.57578 11.8812 6.69771 11.7422 7.70098C11.5164 9.32969 11.3339 10.6458 12.965 10.5604C15.6009 10.4223 13.3104 6.35855 13.3104 6.35855C13.3104 6.35855 19.2895 9.50113 18.8428 14.9973C18.3961 20.4935 12.3074 21.743 12.3074 21.743C12.3074 21.743 13.8995 20.4358 14.2084 19.3064Z" fill="currentColor"/>
</svg>
