<svg width="21" height="21" viewBox="0 0 21 21" fill="currentColor" xmlns="http://www.w3.org/2000/svg">
<path d="M20.5 2.64286C20.5 3.82632 19.5406 4.78571 18.3571 4.78571C17.1737 4.78571 16.2143 3.82632 16.2143 2.64286C16.2143 1.45939 17.1737 0.5 18.3571 0.5C19.5406 0.5 20.5 1.45939 20.5 2.64286Z" fill="currentColor"/>
<path d="M2.64286 6.21429C3.82632 6.21429 4.78571 5.2549 4.78571 4.07143C4.78571 2.88796 3.82632 1.92857 2.64286 1.92857C1.45939 1.92857 0.5 2.88796 0.5 4.07143C0.5 5.2549 1.45939 6.21429 2.64286 6.21429Z" fill="currentColor"/>
<path d="M9.78571 6.21429C10.9692 6.21429 11.9286 5.2549 11.9286 4.07143C11.9286 2.88796 10.9692 1.92857 9.78571 1.92857C8.60225 1.92857 7.64286 2.88796 7.64286 4.07143C7.64286 5.2549 8.60225 6.21429 9.78571 6.21429Z" fill="currentColor"/>
<path d="M2.64286 13.3571C3.82632 13.3571 4.78571 12.3978 4.78571 11.2143C4.78571 10.0308 3.82632 9.07143 2.64286 9.07143C1.45939 9.07143 0.5 10.0308 0.5 11.2143C0.5 12.3978 1.45939 13.3571 2.64286 13.3571Z" fill="currentColor"/>
<path d="M11.9286 11.2143C11.9286 12.3978 10.9692 13.3571 9.78571 13.3571C8.60225 13.3571 7.64286 12.3978 7.64286 11.2143C7.64286 10.0308 8.60225 9.07143 9.78571 9.07143C10.9692 9.07143 11.9286 10.0308 11.9286 11.2143Z" fill="currentColor"/>
<path d="M16.9286 13.3571C18.112 13.3571 19.0714 12.3978 19.0714 11.2143C19.0714 10.0308 18.112 9.07143 16.9286 9.07143C15.7451 9.07143 14.7857 10.0308 14.7857 11.2143C14.7857 12.3978 15.7451 13.3571 16.9286 13.3571Z" fill="currentColor"/>
<path d="M4.78571 18.3571C4.78571 19.5406 3.82632 20.5 2.64286 20.5C1.45939 20.5 0.5 19.5406 0.5 18.3571C0.5 17.1737 1.45939 16.2143 2.64286 16.2143C3.82632 16.2143 4.78571 17.1737 4.78571 18.3571Z" fill="currentColor"/>
<path d="M9.78571 20.5C10.9692 20.5 11.9286 19.5406 11.9286 18.3571C11.9286 17.1737 10.9692 16.2143 9.78571 16.2143C8.60225 16.2143 7.64286 17.1737 7.64286 18.3571C7.64286 19.5406 8.60225 20.5 9.78571 20.5Z" fill="currentColor"/>
<path d="M19.0714 18.3571C19.0714 19.5406 18.112 20.5 16.9286 20.5C15.7451 20.5 14.7857 19.5406 14.7857 18.3571C14.7857 17.1737 15.7451 16.2143 16.9286 16.2143C18.112 16.2143 19.0714 17.1737 19.0714 18.3571Z" fill="currentColor"/>
</svg>
