<svg width="21" height="21" viewBox="0 0 21 21" fill="currentColor" xmlns="http://www.w3.org/2000/svg">
<path fill-rule="evenodd" clip-rule="evenodd" d="M13.2347 15.0288C11.9122 15.9881 10.2857 16.5538 8.52688 16.5538C4.09374 16.5538 0.5 12.96 0.5 8.52688C0.5 4.09374 4.09374 0.5 8.52688 0.5C12.96 0.5 16.5538 4.09374 16.5538 8.52688C16.5538 10.2854 15.9884 11.9119 15.0291 13.2344C15.1552 13.2971 15.2731 13.381 15.3783 13.4862L20.1083 18.2162C20.6306 18.7385 20.6306 19.5857 20.1083 20.108C19.5857 20.6306 18.7388 20.6306 18.2162 20.108L13.4865 15.3783C13.3814 15.2731 13.2974 15.1549 13.2347 15.0288ZM13.8781 8.52688C13.8781 11.4824 11.4824 13.8781 8.52688 13.8781C5.57134 13.8781 3.17563 11.4824 3.17563 8.52688C3.17563 5.57135 5.57134 3.17563 8.52688 3.17563C11.4824 3.17563 13.8781 5.57135 13.8781 8.52688Z" fill="currentColor"/>
</svg>
