<svg width="21" height="19" viewBox="0 0 21 19" fill="currentColor" xmlns="http://www.w3.org/2000/svg">
<path d="M4.58881 4.36734L4.31268 4.08168V14.9182L4.58881 14.6326C4.6776 14.5438 4.78299 14.4733 4.89899 14.4253C5.01499 14.3773 5.13932 14.3525 5.26487 14.3525C5.39043 14.3525 5.51476 14.3773 5.63075 14.4253C5.74675 14.4733 5.85215 14.5438 5.94093 14.6326C6.02971 14.7213 6.10014 14.8267 6.14819 14.9427C6.19623 15.0587 6.22096 15.1831 6.22096 15.3086C6.22096 15.4342 6.19623 15.5585 6.14819 15.6745C6.10014 15.7905 6.02971 15.8959 5.94093 15.9847L4.03654 17.8891C3.94598 17.9757 3.8392 18.0437 3.72232 18.089C3.60834 18.1394 3.4851 18.1654 3.36048 18.1654C3.23587 18.1654 3.11263 18.1394 2.99865 18.089C2.88176 18.0437 2.77498 17.9757 2.68442 17.8891L0.780033 15.9847C0.600731 15.8054 0.5 15.5622 0.5 15.3086C0.5 15.055 0.600731 14.8119 0.780033 14.6326C0.959334 14.4533 1.20252 14.3525 1.45609 14.3525C1.70966 14.3525 1.95285 14.4533 2.13215 14.6326L2.40829 14.9182V4.08168L2.13215 4.36734C1.95285 4.54664 1.70966 4.64737 1.45609 4.64737C1.20252 4.64737 0.959334 4.54664 0.780033 4.36734C0.600731 4.18804 0.5 3.94485 0.5 3.69128C0.5 3.43771 0.600731 3.19452 0.780033 3.01522L2.68442 1.11083C2.77498 1.02414 2.88176 0.956189 2.99865 0.91087C3.11263 0.860494 3.23587 0.834473 3.36048 0.834473C3.4851 0.834473 3.60834 0.860494 3.72232 0.91087C3.8392 0.956189 3.94598 1.02414 4.03654 1.11083L5.94093 3.01522C6.02971 3.104 6.10014 3.2094 6.14819 3.3254C6.19623 3.4414 6.22096 3.56573 6.22096 3.69128C6.22096 3.81684 6.19623 3.94116 6.14819 4.05716C6.10014 4.17316 6.02971 4.27856 5.94093 4.36734C5.85215 4.45612 5.74675 4.52655 5.63075 4.57459C5.51476 4.62264 5.39043 4.64737 5.26487 4.64737C5.13932 4.64737 5.01499 4.62264 4.89899 4.57459C4.78299 4.52655 4.6776 4.45612 4.58881 4.36734Z" fill="currentColor"/>
<path d="M11.0259 14.3086H19.5478C19.8003 14.3086 20.0425 14.4089 20.2211 14.5875C20.3997 14.7661 20.5 15.0083 20.5 15.2608C20.5 15.5133 20.3997 15.7555 20.2211 15.9341C20.0425 16.1127 19.8003 16.213 19.5478 16.213H11.0259C10.7733 16.213 10.5311 16.1127 10.3525 15.9341C10.174 15.7555 10.0737 15.5133 10.0737 15.2608C10.0737 15.0083 10.174 14.7661 10.3525 14.5875C10.5311 14.4089 10.7733 14.3086 11.0259 14.3086Z" fill="currentColor"/>
<path d="M11.0259 8.30859H17.5479C17.8004 8.30859 18.0426 8.40891 18.2212 8.58748C18.3998 8.76606 18.5001 9.00825 18.5001 9.26079C18.5001 9.51333 18.3998 9.75552 18.2212 9.93409C18.0426 10.1127 17.8004 10.213 17.5479 10.213H11.0259C10.7734 10.213 10.5312 10.1127 10.3526 9.93409C10.1741 9.75552 10.0737 9.51333 10.0737 9.26079C10.0737 9.00825 10.1741 8.76606 10.3526 8.58748C10.5312 8.40891 10.7734 8.30859 11.0259 8.30859Z" fill="currentColor"/>
<path d="M11.0259 2.30859H15.5479C15.8004 2.30859 16.0426 2.40891 16.2212 2.58748C16.3998 2.76606 16.5001 3.00825 16.5001 3.26079C16.5001 3.51333 16.3998 3.75552 16.2212 3.93409C16.0426 4.11266 15.8004 4.21299 15.5479 4.21299H11.0259C10.7734 4.21299 10.5312 4.11266 10.3526 3.93409C10.1741 3.75552 10.0737 3.51333 10.0737 3.26079C10.0737 3.00825 10.1741 2.76606 10.3526 2.58748C10.5312 2.40891 10.7734 2.30859 11.0259 2.30859Z" fill="currentColor"/>
</svg>
